<?xml version="1.0" encoding="UTF-8" standalone="no"?>
<!DOCTYPE svg PUBLIC "-//W3C//DTD SVG 1.1//EN" "http://www.w3.org/Graphics/SVG/1.1/DTD/svg11.dtd">
<!-- Generiert durch Microsoft Visio, SVG Export vila.svg Zeichenblatt-1 -->
<svg xmlns="http://www.w3.org/2000/svg" xmlns:xlink="http://www.w3.org/1999/xlink" xmlns:ev="http://www.w3.org/2001/xml-events"
		xmlns:v="http://schemas.microsoft.com/visio/2003/SVGExtensions/" width="3.94791in" height="3.94791in"
		viewBox="0 0 284.25 284.25" xml:space="preserve" color-interpolation-filters="sRGB" class="st2">
	<v:documentProperties v:langID="1031"/>

	<style type="text/css">
	<![CDATA[
		.st1 {fill:#92cddc;stroke:none;stroke-linecap:round;stroke-linejoin:round;stroke-width:0.749998}
		.st2 {fill:none;fill-rule:evenodd;font-size:12px;overflow:visible;stroke-linecap:square;stroke-miterlimit:3}
	]]>
	</style>

	<g v:mID="0" v:index="1" v:groupContext="foregroundPage">
		<title>Zeichenblatt-1</title>
		<v:pageProperties v:drawingScale="1" v:pageScale="1" v:drawingUnits="19" v:shadowOffsetX="8.99995"
				v:shadowOffsetY="-8.99995"/>
		<g id="shape2-1" v:mID="2" v:groupContext="shape" transform="translate(18.45,-33.6049)">
			<title>Tabelle.3</title>
			<path d="M112.33 114.53 A21.4905 21.4905 -180 0 0 69.34 114.53 A21.4905 21.4905 -180 0 0 112.33 114.53 ZM82.23 114.53
						 A8.60152 8.60152 0 1 1 99.44 114.53 A8.60152 8.60152 0 1 1 82.23 114.53 ZM89.74 160.74 A31.6809 31.6809
						 -180 0 0 26.38 160.74 A31.6809 31.6809 -180 0 0 89.74 160.74 ZM45.4 160.74 A12.6702 12.6702 0 1 1 70.73
						 160.74 A12.6702 12.6702 0 1 1 45.4 160.74 ZM122.46 217.91 A31.6809 31.6809 -180 0 0 59.1 217.91 A31.6809
						 31.6809 -180 0 0 122.46 217.91 ZM78.11 217.91 A12.6702 12.6702 0 1 1 103.45 217.91 A12.6702 12.6702 0 1
						 1 78.11 217.91 ZM155.36 160.74 A31.6809 31.6809 -180 0 0 92 160.74 A31.6809 31.6809 -180 0 0 155.36 160.74
						 ZM111.01 160.74 A12.6702 12.6702 0 1 1 136.35 160.74 A12.6702 12.6702 0 1 1 111.01 160.74 ZM188.17 217.91
						 A31.6809 31.6809 -180 0 0 124.81 217.91 A31.6809 31.6809 -180 0 0 188.17 217.91 ZM143.82 217.91 A12.6702
						 12.6702 0 1 1 169.15 217.91 A12.6702 12.6702 0 1 1 143.82 217.91 ZM221.1 160.74 A31.6754 31.6754 -180 1
						 0 157.76 160.74 A31.6754 31.6754 -180 1 0 221.1 160.74 ZM176.75 160.74 A12.6759 12.6759 0 0 1 202.1 160.74
						 A12.6759 12.6759 0 0 1 176.75 160.74 ZM178.1 114.53 A21.4855 21.4853 -0 1 0 135.14 114.53 A21.4855 21.4853
						 -0 1 0 178.1 114.53 ZM148.03 114.53 A8.59417 8.59417 0 1 1 165.21 114.53 A8.59417 8.59417 0 1 1 148.03 114.53
						 ZM171.76 84.79 L180.09 84.79 A85.4732 47.9168 87.94 0 1 205.64 99.56 A81.3139 45.585 85.52 0 1 218.49 119.37
						 A67.7626 37.988 87.38 0 1 228.42 164.82 A108.585 99.9479 0.71 0 1 219.18 204.02 A109.598 100.88 179.93 0
						 1 124.4 265.18 A103.04 94.8439 2.06 0 1 28.32 204.02 A108.585 99.9479 179.29 0 1 19.08 164.82 A67.7626 37.988
						 92.62 0 1 29.01 119.37 A81.3139 45.585 94.48 0 1 41.86 99.56 A85.4732 47.9168 92.06 0 1 67.41 84.79 L171.76
						 84.79 ZM123.76 284.21 A127.193 121.018 -0 0 0 247.5 163.58 A100.407 70.7996 -89.22 0 0 181.01 66.5 L118.2
						 66.47 L66.49 66.5 A100.407 70.7996 -90.78 0 0 -0 163.58 A120.606 114.751 -0 0 0 120.78 284.25 A120.606 114.751
						 -0 0 0 123.76 284.21 Z" class="st1"/>
		</g>
	</g>
</svg>
