<?xml version="1.0" encoding="UTF-8" standalone="no"?>
<!DOCTYPE svg PUBLIC "-//W3C//DTD SVG 1.0//EN" "http://www.w3.org/TR/2001/REC-SVG-20010904/DTD/svg10.dtd">
<!-- Generiert durch Microsoft Visio 11.0, SVG Export, v1.0 ViLa.svg Page-1 -->
<svg xmlns="http://www.w3.org/2000/svg" xmlns:xlink="http://www.w3.org/1999/xlink" xmlns:ev="http://www.w3.org/2001/xml-events"
		xmlns:v="http://schemas.microsoft.com/visio/2003/SVGExtensions/" width="3.30194in" height="3.82688in"
		viewBox="0 0 237.74 275.535" xml:space="preserve" color-interpolation-filters="sRGB" class="st2">
	<v:documentProperties v:langID="1031" v:metric="true" v:viewMarkup="false">
		<v:userDefs>
			<v:ud v:nameU="msvSubprocessMaster" v:prompt="" v:val="VT4(Box)"/>
			<v:ud v:nameU="msvNoAutoConnect" v:val="VT0(1):26"/>
		</v:userDefs>
	</v:documentProperties>

	<style type="text/css">
	<![CDATA[
		.st1 {fill:#92d050;stroke:#92d050;stroke-linecap:round;stroke-linejoin:round;stroke-width:0.24}
		.st2 {fill:none;fill-rule:evenodd;font-size:12px;overflow:visible;stroke-linecap:square;stroke-miterlimit:3}
	]]>
	</style>

	<g v:mID="0" v:index="1" v:groupContext="foregroundPage">
		<title>Zeichenblatt-1</title>
		<v:pageProperties v:drawingScale="0.0393701" v:pageScale="0.0393701" v:drawingUnits="24" v:shadowOffsetX="8.50394"
				v:shadowOffsetY="-8.50394"/>
		<g id="shape2-1" v:mID="2" v:groupContext="shape" transform="translate(18.24,-18.24)">
			<title>Tabelle.2</title>
			<path d="M113.86 109.62 A4.33874 4.33874 -180 1 0 105.18 109.62 A4.33874 4.33874 -180 0 0 113.86 109.62 ZM110.53 95.74
						 A4.33874 4.33874 -180 1 0 101.85 95.74 A4.33874 4.33874 -180 0 0 110.53 95.74 ZM103.45 83.59 A4.33874 4.33874
						 -180 1 0 94.77 83.59 A4.33874 4.33874 -180 0 0 103.45 83.59 ZM91.3 74.91 A4.33874 4.33874 -180 1 0 82.62
						 74.91 A4.33874 4.33874 -180 0 0 91.3 74.91 ZM67 71.44 A4.33874 4.33874 -180 1 0 75.68 71.44 A4.33874 4.33874
						 -180 0 0 67 71.44 ZM28.82 109.62 A4.33874 4.33874 -180 1 0 37.5 109.62 A4.33874 4.33874 -180 0 0 28.82 109.62
						 ZM32.15 95.74 A4.33874 4.33874 -180 1 0 40.82 95.74 A4.33874 4.33874 -180 0 0 32.15 95.74 ZM39.23 83.59
						 A4.33874 4.33874 -180 0 0 47.91 83.59 A4.33874 4.33874 -180 1 0 39.23 83.59 ZM51.38 74.91 A4.33874 4.33874
						 -180 0 0 60.06 74.91 A4.33874 4.33874 -180 0 0 51.38 74.91 ZM50.85 90.34 L51.48 97.57 A1.13355 1.13355 -180
						 0 0 53.48 98.2 L54.13 97.43 A1.7355 1.7355 0 0 1 56.57 97.21 L74.79 112.5 A1.7355 1.7355 -180 0 0 77.23
						 112.28 L78.62 110.62 A1.7355 1.7355 -180 0 0 78.41 108.18 L60.2 92.89 A1.7355 1.7355 0 0 1 59.98 90.45 A1.54823
						 1.54823 -180 0 0 58.66 87.91 L52.43 88.46 A1.7355 1.7355 -180 0 0 50.85 90.34 ZM71.57 170.76 L51.02 170.76
						 L71.57 136.85 L71.57 170.76 L92.13 170.76 L71.57 204.67 L71.57 170.76 ZM189.92 64.46 A2.33858 2.33858 -180
						 0 0 189.96 64.07 L189.96 44.58 A2.33858 2.33858 -180 0 0 187.62 42.24 A2.33858 2.33858 -180 0 0 185.28 44.58
						 L185.28 64.07 A2.33858 2.33858 -180 0 0 185.31 64.46 L189.92 64.46 ZM170.44 64.46 A2.33858 2.33858 -180
						 0 0 170.47 64.07 L170.47 44.58 A2.33858 2.33858 -180 0 0 168.13 42.24 A2.33858 2.33858 -180 0 0 165.79 44.58
						 L165.79 64.07 A2.33858 2.33858 -180 0 0 165.82 64.46 L170.44 64.46 ZM127.56 112.38 L127.56 47.82 A11.3386
						 11.3386 -180 0 0 116.22 36.48 L25.51 36.48 A11.3386 11.3386 -180 0 0 14.17 47.82 L14.17 247.19 L5.67 247.19
						 A5.66929 5.66929 -180 0 0 0 252.86 L0 269.87 A5.66929 5.66929 -180 0 0 5.67 275.54 L136.06 275.54 A5.66929
						 5.66929 -180 0 0 141.73 269.87 L141.73 252.86 A5.66929 5.66929 -180 0 0 136.06 247.19 L127.56 247.19 L127.56
						 120.79 A2.83465 2.83465 -180 0 0 128.27 120.88 A2.83465 2.83465 0 0 1 131.1 123.72 L131.1 148.99 A5.66929
						 5.66929 0 0 1 131.08 149.45 A24.8571 24.8571 -178.82 1 0 180.71 152.15 A5.66929 5.66929 -180 0 0 180.71
						 151.99 L180.71 98.2 A23.3858 23.3858 -180 0 0 201.26 74.98 L201.26 67.19 L154.49 67.19 L154.49 74.98 A23.3858
						 23.3858 -180 0 0 173.62 97.98 L173.62 150.47 A5.66929 5.66929 0 0 1 173.61 150.86 A17.7333 17.7333 1.01
						 0 1 138.19 149.28 A5.66929 5.66929 -180 0 0 138.19 149.17 L138.19 118.05 A5.66929 5.66929 -180 0 0 132.52
						 112.38 L127.56 112.38 ZM22.68 127.42 L22.68 55.14 L119.06 55.14 L119.06 127.42 L22.68 127.42 Z"
					class="st1"/>
		</g>
	</g>
</svg>
